<svg width="58" height="55" viewBox="0 0 58 55" fill="none" xmlns="http://www.w3.org/2000/svg">
<path d="M27.1953 31.4297L15.3828 34.7966V30.1851L27.1953 26.8181V31.4297Z" fill="#559097"/>
<path d="M12.1016 47.1797C13.9137 47.1797 15.3828 45.7106 15.3828 43.8984C15.3828 42.0862 13.9137 40.6172 12.1016 40.6172C10.2894 40.6172 8.82031 42.0862 8.82031 43.8984C8.82031 45.7106 10.2894 47.1797 12.1016 47.1797Z" fill="#559097"/>
<path d="M23.9141 43.8127C25.7262 43.8127 27.1953 42.3436 27.1953 40.5314C27.1953 38.7193 25.7262 37.2502 23.9141 37.2502C22.1019 37.2502 20.6328 38.7193 20.6328 40.5314C20.6328 42.3436 22.1019 43.8127 23.9141 43.8127Z" fill="#559097"/>
<path d="M40.615 13.9001L49.1797 11.4319V6.8203L40.615 9.28854V13.9001Z" fill="#EA9ED7"/>
<path d="M37.3337 26.2831C39.1459 26.2831 40.615 24.814 40.615 23.0019C40.615 21.1897 39.1459 19.7206 37.3337 19.7206C35.5215 19.7206 34.0525 21.1897 34.0525 23.0019C34.0525 24.814 35.5215 26.2831 37.3337 26.2831Z" fill="#EA9ED7"/>
<path d="M40.217 40.8229L36.2924 42.8862L37.0419 38.5161L33.8668 35.4212L38.2547 34.7835L40.217 30.8074L42.1794 34.7835L46.5672 35.4212L43.3921 38.5161L44.1417 42.8862L40.217 40.8229Z" fill="#73C8D2"/>
<path d="M14.1661 15.0498L10.9413 16.7452L11.5572 13.1543L8.94828 10.6113L12.5537 10.0874L14.1661 6.8203L15.7785 10.0874L19.384 10.6113L16.775 13.1543L17.3909 16.7452L14.1661 15.0498Z" fill="#F49419"/>
<path d="M27.1953 25.9978C27.1173 25.9978 27.0421 26.0094 26.9706 26.0297L26.9705 26.0292L24.6144 26.7007C24.1787 26.8249 23.9261 27.2788 24.0503 27.7145C24.1531 28.0751 24.4816 28.3101 24.8388 28.3101C24.9132 28.3101 24.9889 28.2999 25.0641 28.2785L26.375 27.905V30.8105L16.2031 33.7099V30.8044L17.9638 30.3025C18.3995 30.1783 18.6521 29.7244 18.5279 29.2887C18.4037 28.8531 17.95 28.6008 17.5141 28.7247L15.158 29.3963L15.158 29.3969C14.8144 29.4947 14.5625 29.8102 14.5625 30.1852V40.6195C13.8765 40.1033 13.0243 39.7969 12.1016 39.7969C9.83996 39.7969 8 41.6368 8 43.8984C8 46.16 9.83996 48 12.1016 48C14.3632 48 16.2031 46.16 16.2031 43.8984V35.4159L26.375 32.5165V37.2524C25.689 36.7363 24.8368 36.4299 23.9141 36.4299C21.6525 36.4299 19.8125 38.2699 19.8125 40.5315C19.8125 42.7931 21.6525 44.633 23.9141 44.633C26.1757 44.633 28.0156 42.7931 28.0156 40.5315V26.8181C28.0156 26.3651 27.6484 25.9978 27.1953 25.9978V25.9978ZM12.1016 46.3594C10.7446 46.3594 9.64062 45.2554 9.64062 43.8984C9.64062 42.5415 10.7446 41.4375 12.1016 41.4375C13.4585 41.4375 14.5625 42.5415 14.5625 43.8984C14.5625 45.2554 13.4585 46.3594 12.1016 46.3594ZM23.9141 42.9924C22.5571 42.9924 21.4531 41.8884 21.4531 40.5315C21.4531 39.1745 22.5571 38.0705 23.9141 38.0705C25.271 38.0705 26.375 39.1745 26.375 40.5315C26.375 41.8884 25.271 42.9924 23.9141 42.9924Z" fill="#280D2F"/>
<path d="M49.6729 6.16488C49.467 6.00992 49.2002 5.96087 48.9525 6.03207L40.3878 8.50031C40.0366 8.60154 39.7947 8.92293 39.7947 9.28855V19.7228C39.1086 19.2067 38.2564 18.9003 37.3337 18.9003C35.0721 18.9003 33.2322 20.7403 33.2322 23.0019C33.2322 25.2635 35.0721 27.1034 37.3337 27.1034C39.5953 27.1034 41.4353 25.2635 41.4353 23.0019V14.5174L49.4068 12.2201C49.7581 12.1189 50 11.7975 50 11.4319V6.82031C50 6.56257 49.8788 6.31984 49.6729 6.16488V6.16488ZM37.3337 25.4628C35.9768 25.4628 34.8728 24.3588 34.8728 23.0019C34.8728 21.6449 35.9768 20.5409 37.3337 20.5409C38.6907 20.5409 39.7947 21.6449 39.7947 23.0019C39.7947 24.3588 38.6907 25.4628 37.3337 25.4628ZM48.3594 10.8146L41.4353 12.81V9.90583L48.3594 7.91042V10.8146Z" fill="#280D2F"/>
<path d="M46.6852 34.6094L42.7241 34.0338L40.9526 30.4444C40.8144 30.1644 40.5293 29.9872 40.217 29.9872C39.9048 29.9872 39.6196 30.1644 39.4815 30.4444L37.71 34.0338L33.7489 34.6094C33.4399 34.6542 33.1832 34.8707 33.0866 35.1677C32.9901 35.4646 33.0706 35.7906 33.2943 36.0086L36.1605 38.8026L35.4838 42.7477C35.431 43.0554 35.5575 43.3665 35.8102 43.55C36.0627 43.7335 36.3977 43.7577 36.674 43.6125L40.217 41.7498L43.7599 43.6124C43.8799 43.6755 44.011 43.7066 44.1415 43.7066C44.3116 43.7066 44.4809 43.6538 44.6238 43.55C44.8764 43.3665 45.0029 43.0554 44.9501 42.7476L44.2734 38.8025L47.1397 36.0085C47.3633 35.7905 47.4437 35.4645 47.3473 35.1676C47.2508 34.8706 46.9942 34.6542 46.6852 34.6094V34.6094ZM42.8196 37.9287C42.6262 38.1171 42.538 38.3886 42.5836 38.6547L43.0522 41.3867L40.5987 40.0969C40.3598 39.9712 40.0743 39.9712 39.8353 40.0969L37.3818 41.3867L37.8504 38.6547C37.8961 38.3886 37.8078 38.1171 37.6144 37.9287L35.6296 35.9939L38.3727 35.5953C38.6398 35.5565 38.8708 35.3887 38.9903 35.1466L40.217 32.661L41.4437 35.1466C41.5633 35.3887 41.7942 35.5565 42.0614 35.5953L44.8044 35.9939L42.8196 37.9287Z" fill="#280D2F"/>
<path d="M10.675 13.4407L10.1319 16.6066C10.0791 16.9143 10.2056 17.2253 10.4583 17.4089C10.7108 17.5924 11.0459 17.6167 11.3221 17.4713L14.1652 15.9766L17.0083 17.4713C17.1283 17.5344 17.2594 17.5655 17.3899 17.5655C17.56 17.5655 17.7293 17.5127 17.8722 17.4088C18.1248 17.2252 18.2513 16.9143 18.1985 16.6065L17.6554 13.4406L19.9556 11.1986C20.1792 10.9807 20.2597 10.6547 20.1632 10.3577C20.0668 10.0608 19.81 9.84439 19.501 9.79944L16.3223 9.33752L14.9008 6.45724C14.7627 6.17727 14.4776 6 14.1653 6C13.853 6 13.5678 6.17727 13.4297 6.45724L12.0082 9.33761L8.82945 9.79952C8.52044 9.84439 8.26377 10.0609 8.16722 10.3578C8.07067 10.6548 8.15122 10.9808 8.37484 11.1987L10.675 13.4407ZM12.6708 10.8992C12.938 10.8604 13.169 10.6925 13.2884 10.4504L14.1652 8.67389L15.0419 10.4504C15.1614 10.6925 15.3924 10.8604 15.6595 10.8992L17.6201 11.184L16.2016 12.5669C16.0083 12.7554 15.92 13.027 15.9657 13.2931L16.3006 15.2457L14.547 14.3239C14.4275 14.261 14.2964 14.2296 14.1653 14.2296C14.0342 14.2296 13.9031 14.261 13.7837 14.3239L12.0301 15.2457L12.365 13.2931C12.4107 13.027 12.3224 12.7554 12.1291 12.5669L10.7103 11.184L12.6708 10.8992Z" fill="#280D2F"/>
<path d="M27.1953 13.0798C26.7423 13.0798 26.375 13.4471 26.375 13.9001V14.7204C26.375 15.1735 26.7423 15.5407 27.1953 15.5407C27.6484 15.5407 28.0156 15.1735 28.0156 14.7204V13.9001C28.0156 13.4471 27.6484 13.0798 27.1953 13.0798Z" fill="#280D2F"/>
<path d="M27.1953 18.822C26.7423 18.822 26.375 19.1892 26.375 19.6423V20.4626C26.375 20.9157 26.7423 21.2829 27.1953 21.2829C27.6484 21.2829 28.0156 20.9157 28.0156 20.4626V19.6423C28.0156 19.1892 27.6484 18.822 27.1953 18.822Z" fill="#280D2F"/>
<path d="M30.4766 16.361H29.6562C29.2032 16.361 28.8359 16.7283 28.8359 17.1813C28.8359 17.6344 29.2032 18.0017 29.6562 18.0017H30.4766C30.9296 18.0017 31.2969 17.6344 31.2969 17.1813C31.2969 16.7283 30.9296 16.361 30.4766 16.361V16.361Z" fill="#280D2F"/>
<path d="M23.9141 18.0017H24.7344C25.1874 18.0017 25.5547 17.6344 25.5547 17.1813C25.5547 16.7283 25.1874 16.361 24.7344 16.361H23.9141C23.461 16.361 23.0938 16.7283 23.0938 17.1813C23.0938 17.6344 23.461 18.0017 23.9141 18.0017Z" fill="#280D2F"/>
<path d="M21.2891 29.3223C21.5048 29.3223 21.7164 29.2345 21.869 29.0819C22.0216 28.9294 22.1094 28.7177 22.1094 28.502C22.1094 28.2854 22.0216 28.0746 21.869 27.9212C21.7164 27.7686 21.5048 27.6817 21.2891 27.6817C21.0733 27.6817 20.8617 27.7686 20.7091 27.9212C20.5565 28.0746 20.4688 28.2854 20.4688 28.502C20.4688 28.7177 20.5565 28.9294 20.7091 29.0819C20.8617 29.2345 21.0733 29.3223 21.2891 29.3223Z" fill="#280D2F"/>
</svg>
